<?xml version="1.0" standalone="no"?>
<!DOCTYPE svg PUBLIC "-//W3C//DTD SVG 20010904//EN"
 "http://www.w3.org/TR/2001/REC-SVG-20010904/DTD/svg10.dtd">
<svg version="1.0" xmlns="http://www.w3.org/2000/svg"
 width="1920.000000pt" height="1080.000000pt" viewBox="0 0 1920.000000 1080.000000"
 preserveAspectRatio="xMidYMid meet">

<g transform="translate(0.000000,1080.000000) scale(0.100000,-0.100000)"
fill="#000000" stroke="none">
<path d="M4939 8112 c-43 -37 -76 -131 -65 -184 18 -88 69 -138 149 -144 23
-1 101 -8 172 -14 72 -7 155 -14 185 -16 30 -2 73 -6 95 -9 22 -4 60 -8 85
-11 25 -2 99 -9 165 -16 196 -19 253 -10 270 43 7 20 12 21 78 16 90 -8 97
-15 68 -68 -16 -28 -27 -69 -32 -123 -19 -172 -30 -283 -34 -336 -3 -30 -10
-109 -16 -175 -6 -66 -13 -138 -15 -160 -1 -22 -5 -66 -9 -98 -16 -150 -16
-184 4 -229 24 -56 41 -69 95 -75 40 -5 47 -2 88 35 42 39 45 46 56 119 7 43
12 100 12 126 0 62 19 137 34 137 7 0 77 -23 157 -51 79 -28 164 -57 189 -64
25 -7 70 -23 100 -35 30 -12 69 -26 85 -31 17 -4 102 -33 190 -64 88 -31 219
-76 290 -100 72 -24 155 -54 185 -65 30 -12 72 -26 94 -31 21 -5 50 -16 66
-24 15 -8 49 -19 76 -26 27 -7 67 -20 89 -29 50 -21 78 -31 250 -87 77 -25
144 -50 149 -54 5 -5 -10 -54 -37 -116 -62 -146 -99 -279 -113 -403 -4 -30 -9
-75 -13 -100 -8 -54 5 -335 19 -405 43 -219 131 -426 239 -565 60 -78 222
-229 293 -276 173 -112 334 -171 576 -214 93 -16 143 -18 289 -14 212 5 344
24 449 63 309 113 513 287 684 580 73 126 156 377 175 531 27 220 22 378 -19
561 -27 124 -28 147 -7 159 11 5 39 10 63 10 24 0 61 5 83 10 22 5 108 18 190
29 83 12 175 25 205 30 30 6 78 13 105 16 28 3 70 10 95 15 25 5 80 11 122 14
43 3 83 8 89 11 12 8 160 31 288 45 47 5 108 14 135 19 28 6 107 18 176 26 69
9 148 20 175 25 204 38 319 48 330 31 5 -10 -5 -121 -26 -264 -8 -56 -7 -74 7
-102 27 -57 48 -70 120 -70 58 0 66 3 95 31 28 29 31 38 40 135 6 57 12 124
15 149 14 149 26 284 30 345 2 39 8 93 14 120 5 28 12 100 15 160 4 61 11 132
15 159 7 46 4 73 -15 119 -7 16 -1 18 66 15 l73 -3 20 -40 c25 -47 56 -60 167
-70 41 -3 119 -11 174 -16 55 -6 123 -13 150 -15 28 -2 129 -11 225 -21 96 -9
210 -17 254 -17 l78 -1 39 44 c39 43 39 44 39 130 0 94 -19 143 -62 160 -22 9
-136 24 -268 36 -36 3 -96 8 -135 12 -38 4 -115 7 -170 7 l-100 1 -25 -39 -25
-39 -142 7 -141 7 -36 -36 c-35 -35 -36 -35 -115 -32 -75 3 -80 4 -106 35 -34
40 -72 42 -106 6 -21 -22 -29 -25 -64 -19 -22 3 -58 9 -80 11 -22 3 -44 13
-50 21 -5 9 -23 31 -38 49 -29 34 -44 37 -212 49 -61 4 -286 25 -320 30 -16 2
-84 9 -150 15 -66 5 -160 14 -209 20 -79 8 -95 7 -132 -10 -50 -21 -71 -57
-85 -138 -10 -63 0 -107 34 -155 27 -39 51 -46 191 -58 67 -6 132 -12 146 -14
59 -8 288 -28 319 -28 34 0 47 10 91 73 15 21 18 21 145 12 140 -10 173 -4
195 38 9 17 21 20 80 20 38 0 72 -4 75 -10 3 -5 -1 -21 -10 -34 -11 -16 -20
-65 -26 -133 -6 -59 -14 -118 -19 -129 -9 -24 -34 -31 -155 -44 -44 -5 -136
-18 -205 -30 -69 -12 -159 -26 -200 -30 -41 -5 -120 -15 -175 -24 -55 -9 -147
-23 -205 -31 -58 -8 -148 -21 -200 -30 -52 -8 -137 -19 -188 -24 -52 -6 -103
-13 -115 -17 -23 -7 -176 -32 -242 -40 -38 -4 -91 -11 -345 -48 -58 -9 -121
-18 -140 -20 -19 -3 -75 -10 -123 -17 l-88 -12 -72 69 c-40 38 -90 84 -113
101 -40 30 -170 113 -179 113 -2 0 -37 16 -77 35 -92 43 -239 88 -343 106
-105 17 -435 18 -545 1 -191 -29 -413 -125 -562 -244 -30 -23 -83 -27 -120 -7
-23 13 -257 96 -363 129 -33 11 -105 36 -160 55 -55 20 -170 60 -255 89 -85
29 -261 90 -390 136 -129 45 -255 88 -280 95 -25 8 -97 32 -160 55 -63 22
-146 51 -185 64 -38 13 -115 39 -170 59 -55 19 -112 38 -127 41 -36 8 -45 42
-36 129 5 54 3 89 -9 139 -9 37 -15 70 -12 72 9 9 153 -11 156 -21 2 -6 17
-27 34 -46 31 -37 33 -37 246 -52 36 -2 63 -20 63 -42 0 -8 9 -27 20 -43 17
-24 30 -29 97 -38 43 -6 107 -14 143 -17 36 -3 85 -8 110 -10 43 -5 307 -25
322 -25 3 0 21 12 38 26 70 59 91 159 52 247 -34 76 -46 80 -317 102 -99 8
-223 19 -275 25 -52 5 -120 12 -150 14 -30 2 -104 9 -165 16 -60 6 -121 8
-135 5 -14 -3 -39 -22 -55 -42 l-31 -35 -79 10 c-70 10 -82 14 -105 41 -30 37
-64 40 -97 9 -19 -18 -35 -22 -86 -21 -85 1 -104 8 -132 53 -29 46 -57 56
-183 64 -51 3 -101 10 -111 16 -10 5 -26 27 -34 48 -22 55 -40 60 -332 88
-107 10 -122 11 -246 19 l-115 8 -35 -31z m1486 -858 c66 -25 207 -74 255 -89
25 -8 104 -35 175 -60 72 -26 175 -62 230 -80 55 -19 145 -50 200 -70 55 -20
120 -42 145 -50 25 -7 104 -34 175 -60 72 -26 151 -53 177 -60 25 -7 51 -16
57 -19 15 -9 428 -153 520 -181 95 -28 103 -42 55 -95 -39 -43 -59 -48 -103
-25 -16 8 -42 17 -58 20 -17 2 -46 11 -65 19 -38 16 -231 83 -433 151 -71 24
-160 55 -197 69 -38 14 -68 24 -68 21 0 -2 -21 5 -47 17 -27 11 -68 26 -93 33
-25 8 -79 26 -120 41 -141 50 -445 156 -490 170 -25 7 -97 32 -160 54 -63 22
-143 50 -177 62 -34 11 -64 27 -68 35 -3 9 -2 37 1 64 7 56 18 60 89 33z
m6440 -565 c4 -6 4 -30 1 -54 -8 -51 -25 -61 -132 -75 -38 -6 -116 -17 -174
-25 -58 -9 -143 -20 -190 -25 -47 -5 -99 -14 -115 -20 -17 -5 -71 -14 -120
-20 -196 -22 -261 -31 -275 -36 -8 -4 -49 -10 -90 -15 -110 -12 -283 -37 -300
-43 -8 -3 -53 -11 -100 -16 -210 -25 -286 -36 -297 -43 -6 -4 -54 -12 -105
-17 -51 -6 -136 -16 -188 -23 -52 -7 -102 -11 -110 -9 -14 2 -60 87 -60 110 0
5 26 12 58 15 103 9 236 27 277 38 22 5 78 14 125 19 138 15 274 35 285 42 6
3 48 9 94 12 46 4 87 8 91 11 3 2 44 9 91 14 46 6 104 15 129 21 25 5 104 16
175 25 72 9 153 21 180 26 28 6 84 14 125 19 116 14 271 38 315 49 22 6 65 11
95 12 30 1 69 5 85 9 46 12 123 11 130 -1z m-3315 -233 c97 -7 236 -48 330
-97 294 -155 460 -532 406 -921 -34 -235 -153 -479 -289 -589 -60 -49 -127
-92 -167 -108 -19 -8 -40 -18 -47 -23 -21 -17 -186 -50 -271 -55 -179 -11
-401 45 -553 140 -104 65 -154 120 -253 281 -40 64 -77 199 -86 316 -20 246
-7 357 62 540 56 146 189 317 305 392 103 67 242 118 321 118 20 0 44 5 52 10
8 5 40 7 70 5 30 -3 84 -7 120 -9z"/>
<path d="M9395 6378 c-60 -3 -136 -13 -167 -21 -60 -16 -164 -63 -186 -84 -7
-7 -18 -13 -23 -13 -12 0 -169 -150 -169 -161 0 -5 -15 -30 -34 -56 -38 -54
-85 -171 -113 -283 -25 -102 -25 -346 0 -440 65 -248 174 -393 362 -484 150
-72 295 -99 465 -86 200 14 330 71 451 197 52 54 129 153 129 166 0 3 14 36
32 74 52 113 71 216 71 393 0 85 -3 177 -7 203 -6 42 -10 47 -33 47 -14 0 -50
-14 -80 -31 -45 -26 -68 -32 -138 -37 -82 -5 -87 -4 -160 32 -183 89 -263 297
-179 464 31 61 32 100 2 107 -68 16 -124 19 -223 13z"/>
<path d="M6700 5664 c-173 -22 -313 -80 -398 -166 -69 -69 -135 -200 -164
-328 -19 -80 -22 -126 -22 -300 -1 -184 1 -214 23 -295 39 -152 129 -318 251
-465 30 -36 127 -139 215 -230 188 -193 245 -261 309 -362 95 -153 126 -272
126 -481 0 -141 -17 -249 -47 -300 -31 -52 -66 -71 -143 -75 -87 -5 -111 1
-154 39 -74 65 -96 190 -96 551 l0 248 -246 0 -247 0 6 -272 c6 -293 18 -398
63 -548 82 -269 210 -394 459 -447 52 -11 112 -14 230 -10 138 3 171 8 241 30
183 60 295 175 358 366 60 179 85 420 66 626 -21 237 -78 397 -215 605 -75
113 -141 191 -378 449 -268 291 -314 358 -338 498 -14 81 -6 231 15 291 35 97
98 142 199 142 101 0 161 -59 187 -185 6 -27 14 -155 17 -282 l6 -233 234 0
235 0 -5 243 c-6 320 -35 470 -120 632 -63 119 -186 208 -334 241 -69 15 -269
26 -333 18z"/>
<path d="M11670 5410 l0 -220 316 0 316 0 -7 -27 c-3 -16 -161 -576 -351
-1245 l-344 -1217 0 -226 0 -225 613 2 612 3 0 220 0 220 -341 5 -341 5 33
115 c17 63 174 626 348 1251 l316 1136 0 212 0 211 -585 0 -585 0 0 -220z"/>
</g>
</svg>
